/vscmnt/brussel_pixiu_data/_data_brussel/112/vsc11236/PredSimResults/SUBJ07opt3D/weighted-LRposFixed/trackIG/worker_03.mot
version=1
nRows=5
nColumns=50
inDegrees=yes
endheader
                time	         pelvis_tilt	         pelvis_list	     pelvis_rotation	           pelvis_tx	           pelvis_ty	           pelvis_tz	       hip_flexion_r	     hip_adduction_r	      hip_rotation_r	        knee_angle_r	       ankle_angle_r	         mtp_angle_r	       hip_flexion_l	     hip_adduction_l	      hip_rotation_l	        knee_angle_l	       ankle_angle_l	         mtp_angle_l	    lumbar_extension	      lumbar_bending	     lumbar_rotation	 ercspn_r/activation	 intobl_r/activation	 extobl_r/activation	    abd_r/activation	    add_r/activation	hamstrings_r/activation	bifemsh_r/activation	glut_max_r/activation	iliopsoas_r/activation	rect_fem_r/activation	  vasti_r/activation	gastroc_r/activation	 soleus_r/activation	tib_ant_r/activation	 ercspn_l/activation	 intobl_l/activation	 extobl_l/activation	    abd_l/activation	    add_l/activation	hamstrings_l/activation	bifemsh_l/activation	glut_max_l/activation	iliopsoas_l/activation	rect_fem_l/activation	  vasti_l/activation	gastroc_l/activation	 soleus_l/activation	tib_ant_l/activation	
          1.65932305	         -4.31076251	          0.23876942	         -9.38967098	          2.05756059	          0.84568730	          0.01425991	        -14.85224712	         -0.18426406	          5.21213765	         -8.85651041	          8.18715269	         29.26439103	         31.27395491	         -2.72707797	         -5.84382837	         -8.34621948	          2.66870673	          0.27385094	        -11.94171087	          1.22336858	          1.60710070	          0.11699838	          0.00999999	          0.00999999	          0.03199260	          0.05595078	          0.01739252	          0.16849917	          0.01967651	          0.42665127	          0.01184368	          0.00999999	          0.16752613	          0.32296044	          0.01720970	          0.12577508	          0.12370180	          0.00999999	          0.01494039	          0.18343699	          0.09061707	          0.10367379	          0.11136465	          0.04585468	          0.00999999	          0.00999999	          0.00999999	          0.00999999	          0.43020677	
          1.67038521	         -4.30181649	          0.19384788	         -9.43793239	          2.07412740	          0.84395499	          0.01378532	        -15.32594366	         -0.28567921	          4.90739524	        -10.01320400	          7.21506176	         30.90558577	         31.23586204	         -2.53604874	         -5.53730828	        -10.25753089	          2.29949069	          0.25047936	        -11.78099595	          0.86182861	          1.80236588	          0.14072482	          0.00999999	          0.00999999	          0.02701235	          0.08688732	          0.01468505	          0.14226912	          0.01661349	          0.40297075	          0.00999999	          0.00999999	          0.14144756	          0.30192944	          0.01453069	          0.10619584	          0.12656288	          0.00999999	          0.01261464	          0.16974624	          0.07894059	          0.10405637	          0.17394193	          0.03871654	          0.00999999	          0.00999999	          0.01402729	          0.01184368	          0.47558351	
          1.68144736	         -4.28730874	          0.13679047	         -9.42994410	          2.09082875	          0.84245813	          0.01324186	        -15.58934072	         -0.34743968	          4.55004130	        -11.57150685	          6.12823468	         32.50802891	         31.04619852	         -2.38339154	         -5.20187086	        -11.95308952	          1.89750866	          0.24113501	        -11.62170702	          0.50957065	          1.98559338	          0.16183386	          0.00999999	          0.00999999	          0.02280738	          0.07836672	          0.01239905	          0.12012227	          0.01402729	          0.35026509	          0.00999999	          0.00999999	          0.11942860	          0.27837488	          0.01226871	          0.13684480	          0.10686100	          0.00999999	          0.08972832	          0.18011791	          0.06970558	          0.10162412	          0.18400216	          0.03268958	          0.00999999	          0.00999999	          0.01184368	          0.00999999	          0.55218281	
          1.69250952	         -4.26897030	          0.05889768	         -9.36728233	          2.10746234	          0.84134373	          0.01260636	        -15.58684040	         -0.36196029	          4.14821479	        -13.58881113	          4.88538156	         34.00339896	         30.79768125	         -2.24531362	         -4.93098232	        -13.53574335	          1.49235531	          0.21996678	        -11.48435776	          0.17755514	          2.15438487	          0.19981950	          0.00999999	          0.00999999	          0.01925698	          0.07669343	          0.01415573	          0.10142300	          0.01184368	          0.29573978	          0.00999999	          0.00999999	          0.10083730	          0.24174312	          0.01035886	          0.15346869	          0.09022609	          0.00999999	          0.14692382	          0.18965710	          0.05885460	          0.08580443	          0.21520057	          0.02760084	          0.00999999	          0.00999999	          0.00999999	          0.00999999	          0.57257591	
          1.70357167	         -4.24730697	         -0.02880817	         -9.25564114	          2.12383750	          0.84076480	          0.01189271	        -15.26438954	         -0.34153408	          3.71173153	        -16.12270801	          3.49549630	         35.20504310	         30.58874076	         -2.11566618	         -4.71271621	        -15.21306306	          1.38781066	          0.19616914	        -11.38173881	         -0.14722570	          2.30518479	          0.24270928	          0.00999999	          0.00999999	          0.01625927	          0.09667736	          0.01511889	          0.09322379	          0.00999999	          0.24970235	          0.00999999	          0.00999999	          0.08514009	          0.20411128	          0.00999999	          0.16192307	          0.07618071	          0.00999999	          0.18845063	          0.20840271	          0.05016948	          0.07244736	          0.23947274	          0.02330425	          0.00999999	          0.03125214	          0.00999999	          0.00999999	          0.56407854	
